<svg xmlns="http://www.w3.org/2000/svg" width="374.649" height="254.453" viewBox="0 0 374.649 254.453"><defs><style>.a{fill:#3baee8;}.b{fill:#1e98d5;}.c{fill:#47b2e8;}.d{fill:#1b8ac2;}.e{fill:#299fd9;}</style></defs><g transform="translate(-2104.262 -0.552)"><path class="a" d="M2321.441,249.762H2104.262v-94.34a137.111,137.111,0,0,1,217.179,94.34Z" transform="translate(0 5.243)"/><path class="b" d="M2372.446.552c-4.8,103.4-90.158,185.755-194.75,185.755A194.208,194.208,0,0,1,2104.262,172V.552Z"/><path class="c" d="M2219.772.552a190.935,190.935,0,0,1-115.51,79.82V.552Z"/><path class="d" d="M2483.391.552V255.005H2293.5A309.514,309.514,0,0,1,2293.181.552Z" transform="translate(-4.48)"/><path class="e" d="M2478.911,66.482V255.005H2342.832C2362.641,175.391,2412.342,108.079,2478.911,66.482Z" transform="translate(0 0)"/></g></svg>