<svg xmlns="http://www.w3.org/2000/svg" xmlns:xlink="http://www.w3.org/1999/xlink" width="348.621" height="436.5" viewBox="0 0 348.621 436.5"><defs><style>.a{fill:#fff;}.b,.k{fill:#ef9926;}.c{fill:#ffeb97;}.d{fill:#1e98d5;}.e,.i,.r{fill:#ffae1f;}.f{fill:#ffd522;}.g,.q{fill:#ffc91f;}.h{fill:#ffe669;}.i{opacity:0.2;}.i,.k,.o{mix-blend-mode:multiply;isolation:isolate;}.j{fill:#147fb5;}.k{opacity:0.17;}.l{fill:#46b6ee;}.m{fill:#1c88be;}.n,.p{fill:#ffe424;}.o{fill:#ffbb24;opacity:0.18;}.p{opacity:0.48;}.q{opacity:0.45;}.r{opacity:0.51;}.s{fill:#33abe6;}.t{filter:url(#a);}</style><filter id="a" x="33.5" y="64.064" width="308.811" height="372.436" filterUnits="userSpaceOnUse"><feOffset dx="5" dy="2" input="SourceAlpha"/><feGaussianBlur stdDeviation="4.5" result="b"/><feFlood flood-color="#111219" flood-opacity="0.749"/><feComposite operator="in" in2="b"/><feComposite in="SourceGraphic"/></filter></defs><g transform="translate(-97.381 -48.072)"><g class="t" transform="matrix(1, 0, 0, 1, 97.38, 48.07)"><rect class="a" width="281.811" height="345.436" rx="14.516" transform="translate(42 75.56)"/></g><g transform="translate(97.381 48.072)"><path class="b" d="M162.838,159.29a11.233,11.233,0,1,1,11.233-11.233A11.246,11.246,0,0,1,162.838,159.29Zm0-19.1a7.863,7.863,0,1,0,7.863,7.863A7.872,7.872,0,0,0,162.838,140.194Z" transform="translate(-79.418 -31.586)"/><path class="c" d="M378.844,102.618a3.931,3.931,0,1,1,3.932-3.931A3.936,3.936,0,0,1,378.844,102.618Zm0-6.74a2.808,2.808,0,1,0,2.808,2.808A2.811,2.811,0,0,0,378.844,95.878Z" transform="translate(-51.888 -36.772)"/><path class="d" d="M196.161,194.746a4.605,4.605,0,1,1,4.605-4.605A4.61,4.61,0,0,1,196.161,194.746Zm0-7.863a3.258,3.258,0,1,0,3.258,3.257A3.261,3.261,0,0,0,196.161,186.883Z" transform="translate(-74.492 -25.581)"/><circle class="e" cx="5.055" cy="5.055" r="5.055" transform="translate(278.79 102.648)"/><circle class="e" cx="3.931" cy="3.931" r="3.931" transform="translate(70.665 47.265)"/><circle class="f" cx="4.493" cy="4.493" r="4.493" transform="translate(240.669 22.354)"/><circle class="f" cx="4.493" cy="4.493" r="4.493" transform="translate(9.23 135.472)"/><circle class="f" cx="3.37" cy="3.37" r="3.37" transform="translate(326.544 145.214)"/><circle class="d" cx="5.055" cy="5.055" r="5.055" transform="translate(97.898 87.395)"/><circle class="d" cx="1.685" cy="1.685" r="1.685" transform="translate(213.544)"/><circle class="d" cx="1.685" cy="1.685" r="1.685" transform="translate(35.375 127.47)"/><circle class="d" cx="1.685" cy="1.685" r="1.685" transform="translate(116.053 117.032)"/><circle class="e" cx="1.685" cy="1.685" r="1.685" transform="translate(248.553 98.462)"/><circle class="g" cx="1.685" cy="1.685" r="1.685" transform="translate(119.338 10.045)"/><circle class="d" cx="2.808" cy="2.808" r="2.808" transform="translate(180.404 20.604)"/><circle class="d" cx="2.808" cy="2.808" r="2.808" transform="translate(339.112 118.717)"/><circle class="d" cx="2.808" cy="2.808" r="2.808" transform="translate(267.186 83.709)"/><path class="e" d="M358.773,179.895l-11.474-12-11.689,6.361-1.61-2.96,13.953-7.594,10.961,11.465,18.213-16.92,2.293,2.469Z" transform="translate(-56.932 -28.945)"/><path class="d" d="M342.129,105.394l-1.484-16.633,16.551-.022L352.108,70.8l19.018-1.1L365.948,56.47l4.184-1.637,7.435,19-19.608,1.13,5.18,18.26-17.582.023,1.048,11.747Z" transform="translate(-56.113 -41.694)"/><path class="e" d="M182.073,100.587l-3.206-1.038L184.5,82.136l-15.4-6.785,6.528-16.308-18.378-4.532.806-3.272,22.14,5.46-6.757,16.88,15.209,6.7Z" transform="translate(-78.722 -42.137)"/><path class="h" d="M111.919,141.267l-9.307-19.586L91.047,138.566l-3.707-2.54L103.318,112.7l9.8,20.627,10.316-11.214,9.394,15.61-3.849,2.317-6.3-10.468Z" transform="translate(-87.34 -34.56)"/><path class="e" d="M132.621,98.9c-9.862-6.534-6.678-19.993-6.537-20.564l3.273.8c-.029.117-2.746,11.735,5.125,16.951Z" transform="translate(-82.638 -38.796)"/><path class="e" d="M382.66,131.364l-2.909-1.7c5.966-10.216,19.584-7.8,20.162-7.689l-.618,3.313C399.174,125.267,387.423,123.21,382.66,131.364Z" transform="translate(-51.292 -33.457)"/><path class="e" d="M171.093,177.066l-3.159-1.174A17.14,17.14,0,0,1,186.128,165.7l-.361,3.351C174.652,167.853,171.126,176.974,171.093,177.066Z" transform="translate(-77.405 -28.043)"/><path class="d" d="M310.016,197.745l-3.124-1.261c1.419-3.515,1.549-6.562.386-9.058a10.829,10.829,0,0,0-5.866-5.133l1.045-3.2A14.256,14.256,0,0,1,310.333,186C311.907,189.378,311.8,193.329,310.016,197.745Z" transform="translate(-60.949 -26.376)"/><path class="d" d="M205.189,68.421l-1.622-2.952c3.309-1.819,5.334-4.088,6.02-6.743a10.968,10.968,0,0,0-1.294-7.72l2.839-1.816a14.25,14.25,0,0,1,1.729,10.336C211.943,63.136,209.363,66.129,205.189,68.421Z" transform="translate(-73.012 -42.39)"/><path class="d" d="M332.548,162.683c-14.371-2.715-17.805-15.875-17.944-16.435l3.272-.813-1.637.407,1.635-.411c.119.474,3.092,11.636,15.3,13.94Z" transform="translate(-59.323 -30.525)"/><path class="e" d="M310.585,87.581c-1.889,1.278,19.525-1.649,29.023-27.137.785-2.105-8.978-9.027-11.351-6.194S332.73,72.584,310.585,87.581Z" transform="translate(-59.833 -41.849)"/></g><g transform="translate(215.094 67.817)"><path class="d" d="M199.773,109.2s.086,70.362,1.687,72.965,59.309,29.053,61.4,28.432l-.357-75.278Z" transform="translate(-194.02 -55.413)"/><path class="e" d="M218.164,190.716s5.085,7.646,16.309,7.646v-71l-16.309-7.437Z" transform="translate(-190.536 -53.382)"/><path class="i" d="M234.473,139.218V127.361l-16.308-7.437v14.644C223.547,136.332,228.971,137.922,234.473,139.218Z" transform="translate(-190.536 -53.382)"/><path class="j" d="M252.016,136.054l.943,74.991s56.013-27.163,56.55-30.038,2.01-74.171,2.01-74.171Z" transform="translate(-184.124 -55.861)"/><path class="b" d="M274.222,196.278s9.846-1.147,14.764-7.6l1.7-70.378-16.711,5.087Z" transform="translate(-179.965 -53.69)"/><path class="k" d="M290.194,138.58l.489-20.282-16.711,5.087.071,21.023C279.479,142.6,284.875,140.683,290.194,138.58Z" transform="translate(-179.965 -53.69)"/><path class="l" d="M195.108,100.88s-.473,15.947.149,18.091,69.736,30.636,71.245,31.22c0,0-.439-19.341-.465-20.1C266.005,129.169,195.108,100.88,195.108,100.88Z" transform="translate(-194.936 -56.989)"/><path class="m" d="M254.714,129.633l.465,20.1s59.118-24.019,59.979-26.909c.431-1.443,1.764-19.573-.451-19.516Z" transform="translate(-183.613 -56.53)"/><path class="d" d="M266.01,133.488,326,107.161s-62.986-24.277-65.987-24.208c-2.962.069-64.935,21.323-64.935,21.323Z" transform="translate(-194.909 -60.385)"/><path class="e" d="M219.862,93.18l69.393,26.956,1.313,20.364s9.168.971,13.817-6.009l-1.175-20.478-69.962-25.3S223.465,88.783,219.862,93.18Z" transform="translate(-190.215 -59.294)"/><path class="g" d="M278.345,89.329s9.834-.126,14.691,5.49L232.5,120.02l-.272,19.65s-13.433-1.47-17.376-7.39l.516-19.316Z" transform="translate(-191.164 -59.177)"/><path class="n" d="M295.663,71.122c-25.135-26.806-47.969,31.11-42.465,36.729C260.7,115.5,322.254,99.48,295.663,71.122Zm-40.782,35.287c-.988-1.335,19.534-51.169,35.429-30.273C308.858,100.517,256.428,108.5,254.882,106.409Z" transform="translate(-184.057 -63.96)"/><path class="o" d="M298.309,72.74c-.058.536-.117,1.073-.191,1.61-.636,4.544-2.3,8.24-4.1,12.082a11.971,11.971,0,0,1-2.266,4.9,3.122,3.122,0,0,1-1.034,1.232c-8.161,8.877-28.212,12.6-34.2,12.512a35.706,35.706,0,0,1-3.849.337,2.325,2.325,0,0,0,.473.793C260.347,113.561,317.463,99.05,298.309,72.74Z" transform="translate(-184 -62.319)"/><path class="n" d="M256.432,103.68c3.829-1.683,4.019-34.793-13.694-26.535C224,85.882,251.217,105.973,256.432,103.68Zm-12.044-23c11.982-7.17,12.251,21.493,11.5,21.957C254.711,103.36,230.407,89.044,244.388,80.679Z" transform="translate(-187.112 -61.735)"/><path class="o" d="M240.758,77.838c-.077.276-.155.553-.224.833a21.824,21.824,0,0,0-.369,6.776,6.372,6.372,0,0,0,.149,2.869,1.641,1.641,0,0,0,.266.812c2.272,6,11.434,11.8,14.407,12.946a18.775,18.775,0,0,0,1.834.928,1.221,1.221,0,0,1-.391.3C251.42,105.5,226.1,87.036,240.758,77.838Z" transform="translate(-187.111 -61.354)"/><path class="n" d="M261.208,107.753c5.5-5.618-17.33-63.534-42.465-36.728C192.154,99.383,253.713,115.4,261.208,107.753ZM224.1,76.037c15.9-20.9,36.418,28.94,35.429,30.274C257.98,108.4,205.55,100.419,224.1,76.037Z" transform="translate(-191.681 -63.979)"/><path class="o" d="M216.039,72.643c.058.536.117,1.073.191,1.61.636,4.544,2.3,8.24,4.1,12.082a11.987,11.987,0,0,0,2.266,4.9,3.132,3.132,0,0,0,1.034,1.232c8.161,8.877,28.212,12.6,34.2,12.512a35.7,35.7,0,0,0,3.85.337,2.331,2.331,0,0,1-.475.792C254,113.464,196.887,98.953,216.039,72.643Z" transform="translate(-191.679 -62.338)"/><path class="n" d="M268.81,87.271c-10.757-8.867-16.539,14.033-14.2,15.88C257.805,105.665,280.19,96.651,268.81,87.271Zm-13.633,15.255c-.437-.454,4.868-20.2,11.863-13.11C275.2,97.691,255.861,103.236,255.177,102.526Z" transform="translate(-183.73 -59.952)"/><path class="o" d="M269.937,87.868c0,.2.008.409.006.615a15.541,15.541,0,0,1-.956,4.745,4.556,4.556,0,0,1-.614,1.955,1.187,1.187,0,0,1-.329.514c-2.641,3.736-10,6.108-12.262,6.367a13.493,13.493,0,0,1-1.432.313.866.866,0,0,0,.216.276C257.634,105.069,278.42,96.839,269.937,87.868Z" transform="translate(-183.682 -59.454)"/><path class="p" d="M224.418,112.019A81.68,81.68,0,0,1,238.3,106.8a1.786,1.786,0,0,0-.949-3.441,86.86,86.86,0,0,0-14.738,5.58c-2.066,1-.258,4.08,1.8,3.081Z" transform="translate(-189.866 -56.533)"/><path class="p" d="M218.386,114.517q-.28,3.8-.561,7.6c-.169,2.29,3.4,2.279,3.568,0q.28-3.8.561-7.6c.169-2.291-3.4-2.28-3.568,0Z" transform="translate(-190.602 -54.731)"/><path class="q" d="M268.951,107.992,285,113.369c2.181.731,3.117-2.714.948-3.441L269.9,104.551c-2.183-.73-3.119,2.714-.948,3.441Z" transform="translate(-181.15 -56.313)"/><path class="q" d="M285.017,114.649q.086,3.795-.134,7.584c-.132,2.293,3.436,2.286,3.568,0q.221-3.791.134-7.584c-.052-2.292-3.621-2.3-3.568,0Z" transform="translate(-177.899 -54.707)"/><path class="q" d="M220.894,163.544l.082,8.994c.021,2.3,3.59,2.3,3.568,0q-.041-4.5-.082-8.994c-.021-2.294-3.59-2.3-3.568,0Z" transform="translate(-190.019 -45.446)"/><path class="q" d="M220.907,146.016q.068,7.36.134,14.718c.021,2.294,3.59,2.3,3.568,0q-.068-7.36-.134-14.718c-.021-2.3-3.59-2.3-3.568,0Z" transform="translate(-190.017 -48.766)"/><path class="r" d="M282.438,140.6q-.257,10.607-.194,21.214c.013,2.3,3.581,2.3,3.568,0q-.064-10.608.194-21.214c.056-2.3-3.512-2.3-3.568,0Z" transform="translate(-178.401 -49.793)"/><path class="r" d="M282.341,164.094a44.648,44.648,0,0,0,.213,9.322c.287,2.247,3.86,2.275,3.568,0a44.654,44.654,0,0,1-.213-9.322c.187-2.288-3.383-2.277-3.568,0Z" transform="translate(-178.408 -45.339)"/><path class="s" d="M206.128,103.89q6.981-2.109,13.825-4.621c2.137-.785,1.213-4.236-.949-3.441q-6.844,2.514-13.823,4.621c-2.193.663-1.258,4.107.948,3.441Z" transform="translate(-193.232 -57.968)"/><path class="s" d="M202.434,126.146q-.4,12.715-.058,25.429c.062,2.291,3.63,2.3,3.568,0q-.346-12.717.058-25.429c.073-2.3-3.5-2.294-3.568,0Z" transform="translate(-193.557 -52.529)"/><path class="s" d="M202.566,152.522q-.134,4.312-.049,8.626c.045,2.293,3.615,2.3,3.568,0q-.086-4.314.049-8.626c.071-2.3-3.5-2.294-3.568,0Z" transform="translate(-193.506 -47.533)"/></g></g></svg>